<?xml version="1.0" encoding="UTF-8" standalone="no"?>
<!-- Created with Inkscape (http://www.inkscape.org/) -->

<svg
   xmlns:dc="http://purl.org/dc/elements/1.1/"
   xmlns:cc="http://creativecommons.org/ns#"
   xmlns:rdf="http://www.w3.org/1999/02/22-rdf-syntax-ns#"
   xmlns:svg="http://www.w3.org/2000/svg"
   xmlns="http://www.w3.org/2000/svg"
   xmlns:sodipodi="http://sodipodi.sourceforge.net/DTD/sodipodi-0.dtd"
   xmlns:inkscape="http://www.inkscape.org/namespaces/inkscape"
   width="24"
   height="24"
   viewBox="0 0 6.3499999 6.3500001"
   version="1.1"
   id="svg8"
   inkscape:version="0.92.1 r15371"
   sodipodi:docname="logo-icon.svg">
  <defs
     id="defs2" />
  <sodipodi:namedview
     id="base"
     pagecolor="#ffffff"
     bordercolor="#666666"
     borderopacity="1.0"
     inkscape:pageopacity="0.0"
     inkscape:pageshadow="2"
     inkscape:zoom="8.1794872"
     inkscape:cx="22.500011"
     inkscape:cy="2.9999906"
     inkscape:document-units="mm"
     inkscape:current-layer="layer1"
     showgrid="false"
     units="px"
     fit-margin-left="4"
     fit-margin-top="4"
     fit-margin-right="4"
     fit-margin-bottom="4"
     inkscape:window-width="1440"
     inkscape:window-height="837"
     inkscape:window-x="-8"
     inkscape:window-y="-8"
     inkscape:window-maximized="1" />
  <metadata
     id="metadata5">
    <rdf:RDF>
      <cc:Work
         rdf:about="">
        <dc:format>image/svg+xml</dc:format>
        <dc:type
           rdf:resource="http://purl.org/dc/dcmitype/StillImage" />
        <dc:title></dc:title>
      </cc:Work>
    </rdf:RDF>
  </metadata>
  <g
     inkscape:label="Capa 1"
     inkscape:groupmode="layer"
     id="layer1"
     transform="translate(-107.29246,-92.644283)">
    <g
       id="g4510"
       transform="matrix(0.05839137,0,0,0.05476638,120.33972,89.789633)">
      <path
         style="fill:#db2d62;stroke-width:0.26458335"
         d="m -172.10207,138.73267 c -0.72245,-0.23013 -7.44948,-3.93184 -14.94896,-8.22601 -14.59455,-8.3568 -15.67438,-9.10556 -17.04229,-11.81734 -0.37741,-0.74818 -0.80705,-2.00165 -0.95477,-2.7855 -0.37396,-1.98443 -0.35743,-28.816494 0.019,-30.871545 0.38149,-2.082535 1.65042,-4.410424 3.09934,-5.685811 0.64709,-0.569592 4.52529,-2.963974 8.61823,-5.320848 4.09294,-2.356876 10.12062,-5.83343 13.39484,-7.725674 7.43888,-4.299104 7.92067,-4.497117 10.98021,-4.512868 2.02491,-0.01042 2.60187,0.09059 3.85553,0.674999 2.59225,1.208408 30.50969,17.478688 31.32082,18.253769 1.00685,0.962093 1.06506,2.29685 0.14298,3.278359 -0.35065,0.373248 -3.32126,2.033768 -6.60135,3.690046 -3.2801,1.656278 -6.79159,3.437742 -7.8033,3.95881 -2.15225,1.108474 -3.37034,1.201568 -4.98408,0.380902 -0.61266,-0.311571 -4.37085,-2.454696 -8.35152,-4.7625 -3.98068,-2.307805 -7.44853,-4.196006 -7.70635,-4.196006 -0.25782,0 -4.6209,2.401059 -9.69575,5.335685 -5.07484,2.934629 -11.71844,6.777575 -14.76355,8.539883 -3.04511,1.76231 -5.57986,3.334119 -5.6328,3.492919 -0.0529,0.1588 1.12883,1.0002 2.62614,1.86978 17.26087,10.0245 27.20701,15.68673 27.55496,15.68673 0.23276,0 5.27768,-2.81892 11.21094,-6.26426 20.60464,-11.964785 21.59881,-12.521154 22.37379,-12.521154 1.09448,0 1.77014,0.451943 2.19468,1.468004 0.28819,0.68973 0.37448,2.38358 0.37448,7.35093 0,7.04173 -0.18009,8.59723 -1.23819,10.69469 -1.20278,2.38426 -2.57966,3.48759 -8.75929,7.01897 -3.15988,1.80573 -9.01945,5.16665 -13.02127,7.46872 -9.56746,5.50373 -10.14137,5.76631 -12.82029,5.86574 -1.4104,0.0523 -2.5719,-0.0622 -3.44221,-0.33942 z"
         id="path4514"
         inkscape:connector-curvature="0"
         sodipodi:nodetypes="ccccccsccscccccsscsccscssssssccc" />
      <path
         style="fill:#069c8f;stroke-width:0.26458335"
         d="m -205.31666,96.623432 c 0,-6.075945 0.11322,-10.639261 0.28759,-11.591137 0.38149,-2.082535 1.65042,-4.410424 3.09934,-5.685811 0.64709,-0.569592 4.5253,-2.963974 8.61824,-5.320848 4.09294,-2.356876 10.12061,-5.83343 13.39483,-7.725674 7.43889,-4.299104 7.92067,-4.497117 10.98021,-4.512868 2.02491,-0.01042 2.60187,0.09059 3.85553,0.674999 2.59225,1.208408 30.50969,17.478688 31.32082,18.253769 1.00685,0.962093 1.06506,2.29685 0.14298,3.278359 -0.35064,0.373248 -3.32125,2.033768 -6.60135,3.690046 -3.2801,1.656278 -6.79158,3.437742 -7.8033,3.95881 -2.15224,1.108474 -3.37034,1.201568 -4.98407,0.380902 -0.61267,-0.311571 -4.37086,-2.454696 -8.35153,-4.7625 -3.98067,-2.307805 -7.44871,-4.196006 -7.70676,-4.196006 -0.42167,0 -5.98148,3.157175 -23.9494,13.59984 -8.12942,4.724687 -8.36559,4.871137 -9.30753,5.771587 -0.46248,0.4421 -1.21145,1.4991 -1.66438,2.34888 -0.45293,0.84978 -0.93774,1.61566 -1.07736,1.70195 -0.16038,0.0991 -0.25386,-3.53316 -0.25386,-9.864298 z"
         id="path4512"
         inkscape:connector-curvature="0"
         sodipodi:nodetypes="sscsscsccsscssscscs" />
    </g>
  </g>
</svg>
